<?xml version="1.0" encoding="UTF-8"?>
<!-- Generator: Adobe Illustrator 24.3.0, SVG Export Plug-In . SVG Version: 6.00 Build 0)  -->
<svg xmlns="http://www.w3.org/2000/svg" xmlns:xlink="http://www.w3.org/1999/xlink" version="1.1" id="Capa_1" x="0px" y="0px" viewBox="0 0 512.034 512.034" style="enable-background:new 0 0 512.034 512.034;" xml:space="preserve" width="512" height="512">
<g>
	<g id="object">
		<g>
			<path d="M256.034,512.013c-50.904,0.106-100.67-15.062-142.862-43.542c-4.622,0.977-16.824,4.617-45.05,18.167     c-20.14,9.667-38.053,19.43-38.232,19.527c-8.579,4.68-19.327,1.518-24.007-7.061c-2.932-5.375-2.877-11.884,0.146-17.208     c17.088-30.075,35.656-67.733,38.888-81.045c-79.978-116.6-50.29-275.958,66.31-355.935     c101.681-69.745,238.632-57.102,325.827,30.078c99.974,99.975,99.974,262.065-0.001,362.039     C389.043,485.042,323.929,512.013,256.034,512.013z M115.47,432.756c5.031-0.154,9.982,1.277,14.156,4.09     c37.024,25.983,81.178,39.877,126.409,39.778c121.645,0,220.611-98.966,220.611-220.611s-98.966-220.61-220.611-220.61     s-220.61,98.965-220.61,220.61c-0.112,46.088,14.315,91.037,41.229,128.45c6.7,9.337,4.469,21.085-0.94,35.85     c-2.932,7.988-7.288,17.985-12.979,29.751c12.21-5.618,22.59-9.89,30.901-12.717C101.014,434.837,108.53,432.756,115.47,432.756z     "/>
		</g>
		<g>
			<path d="M295.653,353.686c-14.893,0-28.913-4.993-39.618-15.248l-67.814-64.968c-6.055-5.801-16.793-6.938-28.021-2.963     l-60.304,21.335c-9.212,3.261-19.324-1.564-22.585-10.776c-2.276-6.43-0.653-13.595,4.17-18.418l78.26-78.26     c13.923-13.923,31.374-22.919,49.14-25.33c19.269-2.619,37.401,2.962,49.747,15.304l65.807,65.806     c6.075,6.076,17.005,7.271,28.524,3.124l59.131-21.295c9.195-3.308,19.332,1.464,22.64,10.659     c2.32,6.448,0.708,13.656-4.137,18.501l-76.469,76.468C336.963,344.789,315.532,353.686,295.653,353.686z M173.224,232.707     c15.141,0,29.026,5.19,39.482,15.207l67.814,64.968c10.603,10.16,32.849,5.452,48.577-10.275l22.498-22.499     c-20.006,3.369-39.198-1.921-52.193-14.911l-65.809-65.807c-10.516-10.516-32.879-5.925-48.831,10.026L160.24,233.94     C164.52,233.128,168.867,232.715,173.224,232.707z"/>
		</g>
	</g>
</g>















</svg>
